<svg width="40" height="41" viewBox="0 0 40 41" fill="currentColor" xmlns="http://www.w3.org/2000/svg">
<path d="M33.9999 2.36768H5.99994C3.79994 2.36768 1.99994 4.16768 1.99994 6.36768V34.3677C1.99994 36.5697 3.79994 38.3677 5.99994 38.3677H19.9999V24.3677H15.9999V19.4177H19.9999V15.3177C19.9999 10.9897 22.4239 7.94968 27.5319 7.94968L31.1379 7.95368V13.1637H28.7439C26.7559 13.1637 25.9999 14.6557 25.9999 16.0397V19.4197H31.1359L29.9999 24.3677H25.9999V38.3677H33.9999C36.1999 38.3677 37.9999 36.5697 37.9999 34.3677V6.36768C37.9999 4.16768 36.1999 2.36768 33.9999 2.36768Z"/>
</svg>
