<svg width="27" height="27" viewBox="0 0 27 27" fill="currentColor" xmlns="http://www.w3.org/2000/svg">
<path fill-rule="evenodd" clip-rule="evenodd" d="M6.25467 5.97467C6.53146 5.80837 6.95775 5.64587 7.54167 5.64587C8.12558 5.64587 8.55188 5.80837 8.82867 5.97467C9.25604 6.23033 9.38387 6.668 9.39038 6.98C9.40283 7.60183 9.4375 9.65258 9.4375 13.5C9.4375 17.3475 9.40283 19.3982 9.39038 20.0201C9.38387 20.3315 9.25604 20.7698 8.82867 21.0254C8.55188 21.1917 8.12558 21.3542 7.54167 21.3542C6.95775 21.3542 6.53146 21.1917 6.25467 21.0254C5.82729 20.7698 5.69946 20.3321 5.69296 20.0201C5.6805 19.3988 5.64583 17.3475 5.64583 13.5C5.64583 9.65258 5.6805 7.60183 5.69296 6.98C5.69946 6.66854 5.82729 6.23033 6.25467 5.97467ZM20.7453 5.97467C20.4685 5.80837 20.0423 5.64587 19.4583 5.64587C18.8744 5.64587 18.4481 5.80837 18.1713 5.97467C17.7445 6.23033 17.6161 6.668 17.6096 6.98C17.5972 7.60129 17.5625 9.65258 17.5625 13.5C17.5625 17.3475 17.5972 19.3982 17.6096 20.0201C17.6161 20.3315 17.744 20.7698 18.1713 21.0254C18.4481 21.1917 18.8744 21.3542 19.4583 21.3542C20.0423 21.3542 20.4685 21.1917 20.7453 21.0254C21.1722 20.7698 21.3005 20.3321 21.307 20.0201C21.3195 19.3982 21.3542 17.3475 21.3542 13.5C21.3542 9.65258 21.3195 7.60183 21.307 6.98C21.3005 6.66854 21.1722 6.23033 20.7453 5.97467ZM2.9375 8.35421C2.58 8.35421 2.29346 8.41921 2.07408 8.50425C1.52375 8.71767 1.35367 9.23875 1.34554 9.58758C1.33471 10.0735 1.3125 11.3193 1.3125 13.5C1.3125 15.6808 1.33417 16.9266 1.345 17.4125C1.35312 17.7613 1.52375 18.283 2.07408 18.4958C2.29346 18.5809 2.58 18.6459 2.9375 18.6459C3.295 18.6459 3.58154 18.5809 3.80092 18.4958C4.35125 18.283 4.52133 17.7613 4.52946 17.4125C4.54029 16.9266 4.5625 15.6808 4.5625 13.5C4.5625 11.3193 4.54083 10.0735 4.53 9.58758C4.52188 9.23875 4.35125 8.71712 3.80092 8.50425C3.52486 8.4013 3.23211 8.35042 2.9375 8.35421ZM24.9259 8.50425C24.6499 8.4013 24.3571 8.35042 24.0625 8.35421C23.705 8.35421 23.4185 8.41921 23.1991 8.50425C22.6493 8.71767 22.4787 9.23875 22.4705 9.58758C22.4597 10.0735 22.4375 11.3193 22.4375 13.5C22.4375 15.6808 22.4592 16.9266 22.47 17.4125C22.4781 17.7613 22.6488 18.283 23.1991 18.4958C23.4185 18.5809 23.7055 18.6459 24.0625 18.6459C24.42 18.6459 24.7065 18.5809 24.9259 18.4958C25.4757 18.283 25.6463 17.7613 25.6545 17.4125C25.6653 16.9266 25.6875 15.6808 25.6875 13.5C25.6875 11.3193 25.6658 10.0735 25.655 9.58758C25.6469 9.23875 25.4763 8.71712 24.9259 8.50425ZM10.5208 15.0476V11.9525C10.5208 11.439 10.9412 11.1692 11.3891 11.1308C11.4816 11.1221 11.6197 11.1127 11.8035 11.1026C12.1718 11.082 12.7281 11.0625 13.5 11.0625C14.2719 11.0625 14.8287 11.082 15.1965 11.1026C15.3803 11.1127 15.5184 11.1221 15.6109 11.1308C16.0588 11.1687 16.4792 11.439 16.4792 11.9525V15.0476C16.4792 15.5616 16.0588 15.8308 15.6109 15.8693C15.5184 15.878 15.3803 15.8873 15.1965 15.8975C14.8282 15.918 14.2719 15.9375 13.5 15.9375C12.7281 15.9375 12.1713 15.918 11.8035 15.8975C11.6197 15.8873 11.4816 15.878 11.3891 15.8693C10.9412 15.8314 10.5208 15.5611 10.5208 15.0476Z"/>
</svg>
