<svg width="37" height="41" viewBox="0 0 37 41" fill="currentColor" xmlns="http://www.w3.org/2000/svg">
<path fill-rule="evenodd" clip-rule="evenodd" d="M17.7768 0.7301C18.4606 0.688171 19.4744 0.803703 19.5815 0.807189C23.8819 0.946616 33.4385 5.05622 35.5674 11.2929C36.1775 12.7272 36.5121 14.2861 36.5121 15.9155C36.5121 17.6067 36.1516 19.2218 35.4968 20.7007C33.412 25.4093 28.3438 28.7362 22.4286 28.7362C22.2053 28.7362 21.9832 28.7314 21.7624 28.722C16.6832 28.5063 12.3036 25.8363 10.0235 21.9865C10.7772 22.8783 11.6715 23.6665 12.676 24.3238C13.1621 24.6417 13.674 24.9291 14.2083 25.1825C15.949 26.0085 17.9274 26.4755 20.0247 26.4755C22.1159 26.4755 23.8495 26.1211 25.8262 25.1896C30.2739 23.0937 31.0651 18.9364 31.1583 18.3227C31.651 15.0827 29.1075 11.6278 26.9649 10.1807C24.8223 8.73365 22.9313 8.51245 21.2053 8.23137C20.8179 8.16827 17.1951 7.85042 16.5198 7.85042C15.077 7.85042 13.1026 5.97125 13.4361 4.05831C13.7695 2.14537 15.188 0.888843 17.7768 0.7301Z"/>
<path fill-rule="evenodd" clip-rule="evenodd" d="M18.7353 40.006C18.0515 40.048 17.0377 39.9324 16.9306 39.929C12.6301 39.7895 3.07352 35.6799 0.944651 29.4432C0.334564 28.0089 -5.72205e-05 26.4501 -5.72205e-05 24.8207C-5.72205e-05 23.1295 0.360422 21.5143 1.01524 20.0355C3.10004 15.3268 8.1683 12 14.0834 12C14.3067 12 14.5288 12.0047 14.7496 12.0141C19.8289 12.2299 24.2085 14.8998 26.4886 18.7496C25.7349 17.8579 24.8406 17.0696 23.836 16.4124C23.3499 16.0944 22.8381 15.8071 22.3038 15.5536C20.563 14.7277 18.5847 14.2607 16.4874 14.2607C14.3961 14.2607 12.6625 14.6151 10.6859 15.5465C6.23816 17.6425 5.447 21.7998 5.35371 22.4134C4.86105 25.6534 7.40455 29.1084 9.54713 30.5554C11.6897 32.0025 13.5808 32.2237 15.3067 32.5048C15.6942 32.5679 19.317 32.8857 19.9923 32.8857C21.4351 32.8857 23.4094 34.7649 23.076 36.6778C22.7425 38.5908 21.3241 39.8473 18.7353 40.006Z"/>
</svg>
