<svg width="31" height="29" viewBox="0 0 31 29" fill="currentColor" xmlns="http://www.w3.org/2000/svg">
<path fill-rule="evenodd" clip-rule="evenodd" d="M27.6861 14.8976C28.6319 14.4719 29.7444 14.9023 30.1758 15.8606C30.6072 16.8189 30.1916 17.9371 29.2459 18.3628L17.5767 23.6153C16.9943 23.8775 16.3377 23.9321 15.7178 23.7683L6.00513 21.362C5.53598 21.2476 5.05773 21.2415 4.59223 21.3208C4.1797 21.3893 3.7726 21.1558 3.59957 20.7714L0.389931 13.6408C0.175468 13.1643 0.384697 12.6013 0.854886 12.3897L6.8391 9.69605C8.31913 9.02986 9.97574 8.8702 11.5665 9.23506L17.0737 10.5066C18.0854 10.7414 18.7302 11.76 18.5074 12.7783C18.2847 13.7967 17.2814 14.4371 16.2697 14.2023L12.6269 13.3612C12.168 13.2552 11.7095 13.5072 11.5468 13.945L11.1748 14.9459C10.983 15.462 11.2778 16.0455 11.8088 16.1972L19.7571 18.4667L27.6861 14.8976Z"/>
<path d="M23.1562 8.5C23.1562 9.02536 23.0005 9.53892 22.7086 9.97573C22.4167 10.4126 22.0019 10.753 21.5165 10.9541C21.0311 11.1551 20.4971 11.2077 19.9818 11.1052C19.4665 11.0027 18.9932 10.7497 18.6217 10.3783C18.2503 10.0068 17.9973 9.53347 17.8948 9.01821C17.7923 8.50295 17.8449 7.96886 18.0459 7.4835C18.247 6.99813 18.5874 6.58328 19.0243 6.29141C19.4611 5.99954 19.9746 5.84375 20.5 5.84375C21.2045 5.84375 21.8801 6.1236 22.3783 6.62175C22.8764 7.11989 23.1562 7.79552 23.1562 8.5ZM28.4688 4.25V12.75C28.4688 12.8909 28.4128 13.026 28.3132 13.1257C28.2135 13.2253 28.0784 13.2812 27.9375 13.2812H13.0625C12.9216 13.2812 12.7865 13.2253 12.6868 13.1257C12.5872 13.026 12.5312 12.8909 12.5312 12.75V4.25C12.5312 4.1091 12.5872 3.97398 12.6868 3.87435C12.7865 3.77472 12.9216 3.71875 13.0625 3.71875H27.9375C28.0784 3.71875 28.2135 3.77472 28.3132 3.87435C28.4128 3.97398 28.4688 4.1091 28.4688 4.25ZM27.4062 7.32793C26.803 7.14957 26.254 6.82311 25.8092 6.37831C25.3644 5.9335 25.0379 5.38448 24.8596 4.78125H16.1404C15.9621 5.38448 15.6356 5.9335 15.1908 6.37831C14.746 6.82311 14.197 7.14957 13.5938 7.32793V9.67207C14.197 9.85043 14.746 10.1769 15.1908 10.6217C15.6356 11.0665 15.9621 11.6155 16.1404 12.2188H24.8596C25.0379 11.6155 25.3644 11.0665 25.8092 10.6217C26.254 10.1769 26.803 9.85043 27.4062 9.67207V7.32793Z"/>
<defs>
<clipPath id="clip0_0_87">
<rect width="31" height="28.3676"/>
</clipPath>
</defs>
</svg>
