<svg width="28" height="27" viewBox="0 0 28 27" fill="currentColor" xmlns="http://www.w3.org/2000/svg">
<path d="M22.5467 9.16529C23.8907 8.54662 24.7653 7.07462 24.4027 5.43195C24.1467 4.23729 23.144 3.23462 21.9493 2.97862C20.2853 2.61595 18.8133 3.46929 18.1947 4.81329L14.376 0.994619C14.3006 0.918508 14.2109 0.85809 14.112 0.816857C14.0132 0.775624 13.9071 0.754395 13.8 0.754395C13.6929 0.754395 13.5868 0.775624 13.488 0.816857C13.3891 0.85809 13.2994 0.918508 13.224 0.994619L9.91733 4.30129C9.512 4.70662 9.66133 5.38929 10.1947 5.62395C10.6835 5.8392 11.1125 6.17039 11.4445 6.58884C11.7765 7.00729 12.0014 7.50038 12.0999 8.02538C12.1983 8.55038 12.1672 9.09146 12.0093 9.60174C11.8515 10.112 11.5716 10.5761 11.1939 10.9538C10.8162 11.3315 10.3521 11.6114 9.84178 11.7693C9.3315 11.9272 8.79042 11.9582 8.26542 11.8598C7.74042 11.7614 7.24733 11.5364 6.82888 11.2045C6.41043 10.8725 6.07924 10.4435 5.864 9.95462C5.62933 9.42129 4.94666 9.27195 4.54133 9.67729L1.23466 12.984C1.15855 13.0593 1.09813 13.149 1.0569 13.2479C1.01567 13.3468 0.994438 13.4528 0.994438 13.56C0.994438 13.6671 1.01567 13.7731 1.0569 13.872C1.09813 13.9709 1.15855 14.0606 1.23466 14.136L5.05333 17.9546C3.70933 18.5733 2.856 20.0453 3.19733 21.688C3.45333 22.8826 4.456 23.8853 5.65066 24.1413C7.29333 24.504 8.76533 23.6293 9.384 22.2853L13.2027 26.104C13.5227 26.424 14.0347 26.424 14.3547 26.104L17.64 22.8186C18.0453 22.4133 17.9173 21.7306 17.384 21.496C16.2533 20.984 15.4427 19.832 15.4427 18.488C15.4423 17.7337 15.7015 17.0023 16.1767 16.4166C16.6519 15.8308 17.3142 15.4264 18.0523 15.2713C18.7904 15.1162 19.5594 15.2197 20.2302 15.5646C20.901 15.9095 21.4327 16.4747 21.736 17.1653C21.9707 17.6986 22.6533 17.848 23.0587 17.4213L26.344 14.136C26.4201 14.0606 26.4805 13.9709 26.5218 13.872C26.563 13.7731 26.5842 13.6671 26.5842 13.56C26.5842 13.4528 26.563 13.3468 26.5218 13.2479C26.4805 13.149 26.4201 13.0593 26.344 12.984L22.5467 9.16529Z"/>
<defs>
<clipPath id="clip0_0_134">
<rect width="27" height="26" transform="translate(0.5 0.5)"/>
</clipPath>
</defs>
</svg>
