<svg width="40" height="40" viewBox="0 0 40 40" fill="currentColor" xmlns="http://www.w3.org/2000/svg">
<path d="M39.375 20C39.3752 21.8544 38.8255 23.6672 37.7954 25.2091C36.7653 26.751 35.301 27.9528 33.5878 28.6625C31.8746 29.3721 29.9894 29.5578 28.1707 29.196C26.352 28.8341 24.6814 27.9411 23.3703 26.6297L23.2937 26.5469L13.9406 15.986C13.1499 15.2097 12.1475 14.6843 11.0592 14.4756C9.97091 14.267 8.84525 14.3844 7.82348 14.8132C6.80171 15.242 5.92933 15.963 5.31584 16.8858C4.70235 17.8085 4.37506 18.8919 4.37506 20C4.37506 21.1081 4.70235 22.1915 5.31584 23.1143C5.92933 24.0371 6.80171 24.7581 7.82348 25.1868C8.84525 25.6156 9.97091 25.7331 11.0592 25.5244C12.1475 25.3158 13.1499 24.7904 13.9406 24.0141L14.4219 23.4703C14.5851 23.2857 14.7831 23.135 15.0046 23.0268C15.226 22.9187 15.4667 22.8552 15.7127 22.84C15.9587 22.8249 16.2052 22.8583 16.4383 22.9384C16.6714 23.0186 16.8864 23.1438 17.0711 23.3071C17.2558 23.4703 17.4065 23.6683 17.5146 23.8898C17.6228 24.1112 17.6862 24.3518 17.7014 24.5979C17.7166 24.8439 17.6831 25.0904 17.603 25.3235C17.5229 25.5566 17.3976 25.7716 17.2344 25.9563L16.7109 26.5469L16.6344 26.6297C15.3232 27.9407 13.6527 28.8334 11.8342 29.195C10.0157 29.5566 8.13074 29.3709 6.41777 28.6612C4.70481 27.9516 3.24073 26.75 2.21066 25.2083C1.18059 23.6667 0.630798 21.8542 0.630798 20C0.630798 18.1459 1.18059 16.3334 2.21066 14.7917C3.24073 13.25 4.70481 12.0484 6.41777 11.3388C8.13074 10.6292 10.0157 10.4434 11.8342 10.8051C13.6527 11.1667 15.3232 12.0594 16.6344 13.3703L16.7109 13.4532L26.0641 24.0141C26.8548 24.7904 27.8572 25.3158 28.9455 25.5244C30.0338 25.7331 31.1594 25.6156 32.1812 25.1868C33.203 24.7581 34.0753 24.0371 34.6888 23.1143C35.3023 22.1915 35.6296 21.1081 35.6296 20C35.6296 18.8919 35.3023 17.8085 34.6888 16.8858C34.0753 15.963 33.203 15.242 32.1812 14.8132C31.1594 14.3844 30.0338 14.267 28.9455 14.4756C27.8572 14.6843 26.8548 15.2097 26.0641 15.986L25.5828 16.5297C25.4196 16.7144 25.2216 16.8651 25.0001 16.9732C24.7786 17.0814 24.538 17.1449 24.292 17.16C24.046 17.1752 23.7994 17.1417 23.5663 17.0616C23.3333 16.9815 23.1183 16.8562 22.9336 16.693C22.7489 16.5298 22.5982 16.3318 22.49 16.1103C22.3819 15.8888 22.3184 15.6482 22.3033 15.4022C22.2881 15.1562 22.3215 14.9096 22.4017 14.6765C22.4818 14.4435 22.6071 14.2284 22.7703 14.0438L23.2937 13.4532L23.3703 13.3703C24.6814 12.059 26.352 11.1659 28.1707 10.8041C29.9894 10.4423 31.8746 10.6279 33.5878 11.3376C35.301 12.0473 36.7653 13.2491 37.7954 14.791C38.8255 16.3329 39.3752 18.1457 39.375 20Z"/>
</svg>
