<svg width="38" height="30" viewBox="0 0 38 30" fill="currentColor" xmlns="http://www.w3.org/2000/svg">
<path d="M12.16 13.5C11.5306 12.6738 10.3372 12.5039 9.5 13.125C8.66281 13.7461 8.49063 14.9238 9.12 15.75L11.3822 18.7266C11.6672 19.1016 11.6256 19.623 11.2931 19.9512L10.5331 20.7012C10.1353 21.0938 9.48812 21.0645 9.13188 20.6367L3.8 14.3203V5.625C3.8 4.58789 2.95094 3.75 1.9 3.75C0.849062 3.75 0 4.58789 0 5.625V18.4219C0 19.0605 0.219687 19.6816 0.623437 20.1797L6.80437 28.0488C7.10125 28.4297 7.30312 28.8633 7.42188 29.3203C7.52875 29.7246 7.90281 30 8.33031 30H16.15C16.6725 30 17.1 29.5781 17.1 29.0625V22.5C17.1 20.877 16.5656 19.3008 15.58 18L12.16 13.5ZM36.1 3.75C35.0491 3.75 34.2 4.58789 34.2 5.625V14.3203L28.8681 20.6367C28.5119 21.0586 27.8587 21.0879 27.4669 20.7012L26.7069 19.9512C26.3744 19.623 26.3328 19.1016 26.6178 18.7266L28.88 15.75C29.5094 14.9238 29.3372 13.7461 28.5 13.125C27.6628 12.5039 26.4694 12.6738 25.84 13.5L22.42 18C21.4344 19.3008 20.9 20.877 20.9 22.5V29.0625C20.9 29.5781 21.3275 30 21.85 30H29.6697C30.0912 30 30.4713 29.7246 30.5781 29.3203C30.6969 28.8633 30.8988 28.4297 31.1956 28.0488L37.3766 20.1797C37.7803 19.6816 38 19.0605 38 18.4219V5.625C38 4.58789 37.1509 3.75 36.1 3.75Z"/>
</svg>
