<svg width="40" height="41" viewBox="0 0 40 41" fill="currentColor" xmlns="http://www.w3.org/2000/svg">
<path d="M30.625 0.367676H9.375C4.19733 0.367676 0 4.56501 0 9.74268V30.9927C0 36.1703 4.19733 40.3677 9.375 40.3677H30.625C35.8027 40.3677 40 36.1703 40 30.9927V9.74268C40 4.56501 35.8027 0.367676 30.625 0.367676Z" fill="currentColor"/>
<path d="M30.625 0.367676H9.375C4.19733 0.367676 0 4.56501 0 9.74268V30.9927C0 36.1703 4.19733 40.3677 9.375 40.3677H30.625C35.8027 40.3677 40 36.1703 40 30.9927V9.74268C40 4.56501 35.8027 0.367676 30.625 0.367676Z" fill="currentColor"/>
<path d="M20.0014 4.74268C15.758 4.74268 15.2253 4.76127 13.5588 4.83705C11.8953 4.9133 10.7598 5.17658 9.76641 5.56299C8.73859 5.96205 7.86688 6.49596 6.99844 7.36471C6.12922 8.2333 5.59531 9.10502 5.195 10.1324C4.8075 11.1261 4.54391 12.2621 4.46906 13.9247C4.39453 15.5914 4.375 16.1242 4.375 20.3678C4.375 24.6114 4.39375 25.1424 4.46938 26.8089C4.54594 28.4724 4.80922 29.6078 5.19531 30.6013C5.59469 31.6291 6.12859 32.5008 6.99734 33.3692C7.86563 34.2385 8.73734 34.7736 9.76438 35.1727C10.7586 35.5591 11.8942 35.8224 13.5573 35.8986C15.2241 35.9744 15.7563 35.993 19.9995 35.993C24.2434 35.993 24.7744 35.9744 26.4409 35.8986C28.1044 35.8224 29.2411 35.5591 30.2353 35.1727C31.2627 34.7736 32.1331 34.2385 33.0012 33.3692C33.8705 32.5008 34.4042 31.6291 34.8047 30.6017C35.1887 29.6078 35.4525 28.472 35.5306 26.8092C35.6055 25.1427 35.625 24.6114 35.625 20.3678C35.625 16.1242 35.6055 15.5917 35.5306 13.925C35.4525 12.2616 35.1887 11.1263 34.8047 10.1328C34.4042 9.10502 33.8705 8.2333 33.0012 7.36471C32.1322 6.49564 31.263 5.96174 30.2344 5.56314C29.2383 5.17658 28.1022 4.91314 26.4387 4.83705C24.772 4.76127 24.2414 4.74268 19.9966 4.74268H20.0014ZM18.5997 7.55846C19.0158 7.55783 19.48 7.55846 20.0014 7.55846C24.1734 7.55846 24.6678 7.57346 26.3153 7.6483C27.8387 7.71799 28.6656 7.97252 29.2164 8.18643C29.9456 8.46955 30.4655 8.80814 31.012 9.35518C31.5589 9.90205 31.8973 10.4228 32.1813 11.1521C32.3952 11.7021 32.65 12.5289 32.7194 14.0524C32.7942 15.6996 32.8105 16.1942 32.8105 20.3642C32.8105 24.5342 32.7942 25.0291 32.7194 26.6761C32.6497 28.1996 32.3952 29.0264 32.1813 29.5766C31.8981 30.3058 31.5589 30.825 31.012 31.3716C30.4652 31.9185 29.9459 32.2569 29.2164 32.5402C28.6663 32.755 27.8387 33.0089 26.3153 33.0786C24.6681 33.1535 24.1734 33.1697 20.0014 33.1697C15.8292 33.1697 15.3347 33.1535 13.6877 33.0786C12.1642 33.0083 11.3373 32.7538 10.7861 32.5399C10.057 32.2566 9.53609 31.9181 8.98922 31.3713C8.44234 30.8244 8.10391 30.3049 7.82 29.5753C7.60609 29.0252 7.35125 28.1983 7.28188 26.6749C7.20703 25.0277 7.19203 24.533 7.19203 20.3603C7.19203 16.1877 7.20703 15.6956 7.28188 14.0485C7.35156 12.525 7.60609 11.6981 7.82 11.1474C8.10328 10.4181 8.44234 9.89736 8.98938 9.35049C9.53641 8.80361 10.057 8.46502 10.7862 8.18127C11.337 7.96643 12.1642 7.71252 13.6877 7.64252C15.1291 7.57736 15.6877 7.55783 18.5997 7.55455V7.55846ZM28.342 10.1528C27.3069 10.1528 26.467 10.9919 26.467 12.0272C26.467 13.0624 27.3069 13.9022 28.342 13.9022C29.3772 13.9022 30.217 13.0624 30.217 12.0272C30.217 10.9921 29.3772 10.1522 28.342 10.1522V10.1528ZM20.0014 12.3436C15.5702 12.3436 11.9773 15.9364 11.9773 20.3678C11.9773 24.7992 15.5702 28.3903 20.0014 28.3903C24.4328 28.3903 28.0244 24.7992 28.0244 20.3678C28.0244 15.9366 24.4325 12.3436 20.0011 12.3436H20.0014ZM20.0014 15.1594C22.8778 15.1594 25.2098 17.4911 25.2098 20.3678C25.2098 23.2442 22.8778 25.5763 20.0014 25.5763C17.125 25.5763 14.7931 23.2442 14.7931 20.3678C14.7931 17.4911 17.1248 15.1594 20.0014 15.1594Z" fill="#DEE0E1"/>
<defs>
<clipPath id="clip0_129_29">
<rect y="0.367676" width="40" height="40" rx="10.25"/>
</clipPath>
</defs>
</svg>
