<svg width="41" height="41" viewBox="0 0 41 41" fill="currentColor" xmlns="http://www.w3.org/2000/svg">
<path d="M5.50002 14.2725V14.25C5.49999 12.0277 6.15817 9.85511 7.39152 8.00641C8.62487 6.15771 10.3781 4.71571 12.4301 3.86235C14.4821 3.00898 16.7409 2.78248 18.9214 3.21143C21.102 3.64037 23.1067 4.70554 24.6825 6.27254C25.9224 5.66057 27.3073 5.40327 28.6843 5.52906C30.0613 5.65486 31.3766 6.15885 32.4851 6.98536C33.5936 7.81186 34.452 8.92871 34.9655 10.2125C35.4791 11.4963 35.6277 12.8971 35.395 14.26C35.7371 14.2918 36.069 14.3937 36.3699 14.5594C36.6709 14.7252 36.9344 14.9511 37.1442 15.2233C37.3539 15.4954 37.5053 15.8078 37.5889 16.141C37.6725 16.4743 37.6865 16.8212 37.63 17.16C36.5 23.9575 33.705 28.26 29.25 30.07V31.75C29.25 32.7446 28.8549 33.6984 28.1517 34.4017C27.4484 35.105 26.4946 35.5 25.5 35.5H15.5C14.5055 35.5 13.5516 35.105 12.8484 34.4017C12.1451 33.6984 11.75 32.7446 11.75 31.75V30.07C7.29502 28.26 4.50002 23.9575 3.37002 17.16C3.31549 16.8302 3.32768 16.4927 3.40589 16.1676C3.48409 15.8425 3.62671 15.5364 3.82531 15.2674C4.02391 14.9984 4.27445 14.772 4.56211 14.6015C4.84977 14.4311 5.1687 14.3201 5.50002 14.275V14.2725ZM8.00002 14.25H10.5C10.5 12.5924 11.1585 11.0027 12.3306 9.83063C13.5027 8.65852 15.0924 8.00004 16.75 8.00004C18.4076 8.00004 19.9973 8.65852 21.1694 9.83063C22.3415 11.0027 23 12.5924 23 14.25H25.5C25.5 11.9294 24.5782 9.7038 22.9372 8.06286C21.2963 6.42192 19.0707 5.50004 16.75 5.50004C14.4294 5.50004 12.2038 6.42192 10.5628 8.06286C8.9219 9.7038 8.00002 11.9294 8.00002 14.25ZM13 14.25H20.5C20.5 13.2555 20.1049 12.3017 19.4017 11.5984C18.6984 10.8951 17.7446 10.5 16.75 10.5C15.7555 10.5 14.8016 10.8951 14.0984 11.5984C13.3951 12.3017 13 13.2555 13 14.25ZM30.165 14.25H32.8425C33.0313 13.5112 33.0489 12.7391 32.894 11.9924C32.7391 11.2458 32.4158 10.5443 31.9488 9.94154C31.4817 9.33876 30.8833 8.85053 30.199 8.51408C29.5146 8.17762 28.7626 8.00181 28 8.00004C27.4 8.00004 26.83 8.10504 26.3 8.29754C26.7425 9.00754 27.1075 9.77254 27.3875 10.575C27.8637 10.4569 28.364 10.4813 28.8265 10.645C29.289 10.8087 29.6932 11.1046 29.989 11.496C30.2848 11.8874 30.4592 12.357 30.4905 12.8466C30.5217 13.3362 30.4086 13.8242 30.165 14.25ZM26.75 30.5H14.25V31.75C14.25 32.0816 14.3817 32.3995 14.6161 32.6339C14.8506 32.8683 15.1685 33 15.5 33H25.5C25.8315 33 26.1495 32.8683 26.3839 32.6339C26.6183 32.3995 26.75 32.0816 26.75 31.75V30.5ZM13.37 28H27.63C31.595 26.725 34.105 23.12 35.165 16.75H5.83502C6.89502 23.12 9.40502 26.725 13.37 28Z"/>
</svg>
